# xmcd
#
# Track frame offsets: 
#        150
#        14888
#        37495
#        51789
#
# Disc length: 985 seconds
#
# Revision: 0
# Processed by: cddbd v1.5.2PL0 Copyright (c) Steve Scherf et al.
# Submitted via: ExactAudioCopy v1.0b1
#
DISCID=3903d704
DTITLE=The Bad Poetry Band - Life Is
DYEAR=2011
DGENRE=Blues
TTITLE0=Blues for D
TTITLE1=House of Blue Light
TTITLE2=Life Is
TTITLE3=Dance Me Round
EXTD=
EXTT0=
EXTT1=
EXTT2=
EXTT3=
PLAYORDER=
